<svg width="810" height="1024" viewBox="0 0 810 1024" fill="none" xmlns="http://www.w3.org/2000/svg">
<g clip-path="url(#clip0_75_4)">
<path d="M810 0H-17V1024H810V0Z" fill="#4DA6FF"/>
<path fill-rule="evenodd" clip-rule="evenodd" d="M95.3071 699.059C122.222 676.403 157.623 671.393 192.797 670.724C224.998 670.111 258.821 673.535 282.377 695.499C305.085 716.672 304.217 750.154 310.577 780.543C318.477 818.289 342.691 857.757 323.316 891.101C302.574 926.8 257.355 941.04 216.12 943.109C176.251 945.109 140.28 926.102 108.554 901.875C74.7511 876.062 36.9921 846.647 34.2201 804.205C31.4741 762.156 63.0691 726.195 95.3071 699.059Z" fill="#F2C419"/>
<path fill-rule="evenodd" clip-rule="evenodd" d="M738.811 179.501C767.858 180.349 799.738 172.881 821.758 191.844C844.72 211.619 852.21 244.613 849.46 274.791C846.92 302.614 828.618 325.135 807.904 343.883C788.442 361.498 765.001 373.163 738.811 374.94C710.5 376.86 680.121 373.603 659.661 353.941C638.919 334.006 636.115 303.52 634.604 274.791C632.976 243.844 628.002 207.764 650.872 186.852C673.439 166.216 708.245 178.608 738.811 179.501Z" fill="#F2C419"/>
<path fill-rule="evenodd" clip-rule="evenodd" d="M654.183 -104.329C720.639 -116.256 779.52 -62.0772 826.718 -13.7964C873.27 33.8226 917.63 92.4429 911.35 158.738C905.37 221.846 849.49 266.079 796.857 301.412C754.913 329.57 704.568 327.713 654.183 331.386C597.06 335.551 535.863 356.88 489.071 323.851C437.195 287.233 399.678 221.457 409.595 158.738C418.957 99.5329 493.343 82.6115 534.157 38.7129C578.216 -8.67455 590.496 -92.8979 654.183 -104.329Z" fill="#333333" fill-opacity="0.2"/>
<path fill-rule="evenodd" clip-rule="evenodd" d="M514.006 540.596C630.471 488.001 732.35 393.316 859 410.311C1007.63 430.253 1162.18 501.659 1228.01 636.4C1293.57 770.608 1236.14 926.749 1178.66 1064.61C1126.22 1190.36 1045.91 1302.87 924.42 1364.52C802.024 1426.63 664.337 1419.37 529.441 1394.06C364.591 1363.12 163.62 1353.84 83.156 1206.67C1.89497 1058.05 71.338 866.696 163.336 724.47C237.857 609.265 388.959 597.067 514.006 540.596Z" fill="#003366"/>
<path fill-rule="evenodd" clip-rule="evenodd" d="M299.307 -22.9417C326.222 -45.5969 361.623 -50.6073 396.797 -51.2766C428.998 -51.8894 462.821 -48.4652 486.377 -26.5016C509.085 -5.32854 508.217 28.1533 514.577 58.5424C522.477 96.2891 546.691 135.757 527.316 169.101C506.574 204.799 461.355 219.04 420.12 221.108C380.251 223.108 344.28 204.102 312.554 179.875C278.751 154.062 240.992 124.646 238.22 82.2048C235.474 40.1561 267.069 4.1943 299.307 -22.9417Z" fill="#003366" fill-opacity="0.6"/>
<path fill-rule="evenodd" clip-rule="evenodd" d="M34.374 253.736C90.752 255.383 152.63 240.888 195.368 277.694C239.935 316.076 254.47 380.114 249.133 438.688C244.212 492.692 208.683 536.403 168.479 572.793C130.705 606.983 85.206 629.623 34.374 633.072C-20.576 636.8 -79.5413 630.477 -119.252 592.313C-159.512 553.621 -164.954 494.45 -167.887 438.688C-171.047 378.622 -180.7 308.594 -136.311 268.003C-92.5103 227.951 -24.953 252.002 34.374 253.736Z" fill="#003366"/>
</g>
<defs>
<clipPath id="clip0_75_4">
<rect width="810" height="1024" fill="white"/>
</clipPath>
</defs>
</svg>
